<mxfile host="app.diagrams.net" agent="Mozilla/5.0 (Windows NT 10.0; Win64; x64) AppleWebKit/537.36 (KHTML, like Gecko) Chrome/135.0.0.0 Safari/537.36 Edg/135.0.0.0" version="26.2.15">
  <diagram name="第 1 页" id="vjwTpsm0xrumNap4vT3P">
    <mxGraphModel dx="1525" dy="1098" grid="1" gridSize="10" guides="1" tooltips="1" connect="1" arrows="1" fold="1" page="1" pageScale="1" pageWidth="1200" pageHeight="1600" math="0" shadow="0">
      <root>
        <mxCell id="0" />
        <mxCell id="1" parent="0" />
        <mxCell id="tc7dyHWRMowXd4kIYt2K-1" value="开始" style="whiteSpace=wrap;strokeWidth=2;" vertex="1" parent="1">
          <mxGeometry x="343" y="20" width="92" height="54" as="geometry" />
        </mxCell>
        <mxCell id="tc7dyHWRMowXd4kIYt2K-2" value="创建QDialog窗口" style="whiteSpace=wrap;strokeWidth=2;" vertex="1" parent="1">
          <mxGeometry x="300" y="124" width="179" height="54" as="geometry" />
        </mxCell>
        <mxCell id="tc7dyHWRMowXd4kIYt2K-3" value="显示视频当前帧" style="whiteSpace=wrap;strokeWidth=2;" vertex="1" parent="1">
          <mxGeometry x="303" y="228" width="172" height="54" as="geometry" />
        </mxCell>
        <mxCell id="tc7dyHWRMowXd4kIYt2K-4" value="初始化顶点列表" style="whiteSpace=wrap;strokeWidth=2;" vertex="1" parent="1">
          <mxGeometry x="303" y="332" width="172" height="54" as="geometry" />
        </mxCell>
        <mxCell id="tc7dyHWRMowXd4kIYt2K-38" style="edgeStyle=orthogonalEdgeStyle;rounded=0;orthogonalLoop=1;jettySize=auto;html=1;exitX=1;exitY=0.5;exitDx=0;exitDy=0;entryX=0;entryY=0.5;entryDx=0;entryDy=0;" edge="1" parent="1" source="tc7dyHWRMowXd4kIYt2K-5" target="tc7dyHWRMowXd4kIYt2K-6">
          <mxGeometry relative="1" as="geometry">
            <Array as="points">
              <mxPoint x="520" y="511" />
              <mxPoint x="520" y="37" />
            </Array>
          </mxGeometry>
        </mxCell>
        <mxCell id="tc7dyHWRMowXd4kIYt2K-58" value="否" style="edgeLabel;html=1;align=center;verticalAlign=middle;resizable=0;points=[];" vertex="1" connectable="0" parent="tc7dyHWRMowXd4kIYt2K-38">
          <mxGeometry x="-0.9076" y="-2" relative="1" as="geometry">
            <mxPoint as="offset" />
          </mxGeometry>
        </mxCell>
        <mxCell id="tc7dyHWRMowXd4kIYt2K-56" style="edgeStyle=orthogonalEdgeStyle;rounded=0;orthogonalLoop=1;jettySize=auto;html=1;exitX=0.5;exitY=1;exitDx=0;exitDy=0;entryX=0;entryY=0.5;entryDx=0;entryDy=0;" edge="1" parent="1" source="tc7dyHWRMowXd4kIYt2K-5" target="tc7dyHWRMowXd4kIYt2K-17">
          <mxGeometry relative="1" as="geometry" />
        </mxCell>
        <mxCell id="tc7dyHWRMowXd4kIYt2K-59" value="是" style="edgeLabel;html=1;align=center;verticalAlign=middle;resizable=0;points=[];" vertex="1" connectable="0" parent="tc7dyHWRMowXd4kIYt2K-56">
          <mxGeometry x="-0.5252" relative="1" as="geometry">
            <mxPoint as="offset" />
          </mxGeometry>
        </mxCell>
        <mxCell id="tc7dyHWRMowXd4kIYt2K-5" value="窗口是否关闭" style="rhombus;strokeWidth=2;whiteSpace=wrap;" vertex="1" parent="1">
          <mxGeometry x="314" y="436" width="150" height="150" as="geometry" />
        </mxCell>
        <mxCell id="tc7dyHWRMowXd4kIYt2K-6" value="等待用户点击鼠标" style="whiteSpace=wrap;strokeWidth=2;" vertex="1" parent="1">
          <mxGeometry x="596" y="10" width="188" height="54" as="geometry" />
        </mxCell>
        <mxCell id="tc7dyHWRMowXd4kIYt2K-7" value="用户是否点击鼠标" style="rhombus;strokeWidth=2;whiteSpace=wrap;" vertex="1" parent="1">
          <mxGeometry x="636" y="87.5" width="109" height="102.5" as="geometry" />
        </mxCell>
        <mxCell id="tc7dyHWRMowXd4kIYt2K-8" value="添加顶点到列表" style="whiteSpace=wrap;strokeWidth=2;" vertex="1" parent="1">
          <mxGeometry x="604.5" y="228" width="172" height="54" as="geometry" />
        </mxCell>
        <mxCell id="tc7dyHWRMowXd4kIYt2K-9" value="自动连接顶点成多边形" style="whiteSpace=wrap;strokeWidth=2;" vertex="1" parent="1">
          <mxGeometry x="580" y="310" width="220" height="54" as="geometry" />
        </mxCell>
        <mxCell id="tc7dyHWRMowXd4kIYt2K-48" style="edgeStyle=orthogonalEdgeStyle;rounded=0;orthogonalLoop=1;jettySize=auto;html=1;exitX=0.5;exitY=1;exitDx=0;exitDy=0;entryX=0.5;entryY=0;entryDx=0;entryDy=0;" edge="1" parent="1" source="tc7dyHWRMowXd4kIYt2K-10" target="tc7dyHWRMowXd4kIYt2K-14">
          <mxGeometry relative="1" as="geometry" />
        </mxCell>
        <mxCell id="tc7dyHWRMowXd4kIYt2K-49" style="edgeStyle=orthogonalEdgeStyle;rounded=0;orthogonalLoop=1;jettySize=auto;html=1;exitX=0.5;exitY=1;exitDx=0;exitDy=0;entryX=0.5;entryY=0;entryDx=0;entryDy=0;" edge="1" parent="1" source="tc7dyHWRMowXd4kIYt2K-10" target="tc7dyHWRMowXd4kIYt2K-11">
          <mxGeometry relative="1" as="geometry" />
        </mxCell>
        <mxCell id="tc7dyHWRMowXd4kIYt2K-10" value="更新显示" style="whiteSpace=wrap;strokeWidth=2;" vertex="1" parent="1">
          <mxGeometry x="628.5" y="386" width="124" height="54" as="geometry" />
        </mxCell>
        <mxCell id="tc7dyHWRMowXd4kIYt2K-51" style="edgeStyle=orthogonalEdgeStyle;rounded=0;orthogonalLoop=1;jettySize=auto;html=1;exitX=1;exitY=0.5;exitDx=0;exitDy=0;entryX=0;entryY=0.5;entryDx=0;entryDy=0;" edge="1" parent="1" source="tc7dyHWRMowXd4kIYt2K-11" target="tc7dyHWRMowXd4kIYt2K-12">
          <mxGeometry relative="1" as="geometry" />
        </mxCell>
        <mxCell id="tc7dyHWRMowXd4kIYt2K-60" value="是" style="edgeLabel;html=1;align=center;verticalAlign=middle;resizable=0;points=[];" vertex="1" connectable="0" parent="tc7dyHWRMowXd4kIYt2K-51">
          <mxGeometry x="-0.9382" relative="1" as="geometry">
            <mxPoint x="-6" as="offset" />
          </mxGeometry>
        </mxCell>
        <mxCell id="tc7dyHWRMowXd4kIYt2K-57" style="edgeStyle=orthogonalEdgeStyle;rounded=0;orthogonalLoop=1;jettySize=auto;html=1;exitX=0.5;exitY=1;exitDx=0;exitDy=0;entryX=1;entryY=0.5;entryDx=0;entryDy=0;" edge="1" parent="1" source="tc7dyHWRMowXd4kIYt2K-11" target="tc7dyHWRMowXd4kIYt2K-17">
          <mxGeometry relative="1" as="geometry" />
        </mxCell>
        <mxCell id="tc7dyHWRMowXd4kIYt2K-61" value="否" style="edgeLabel;html=1;align=center;verticalAlign=middle;resizable=0;points=[];" vertex="1" connectable="0" parent="tc7dyHWRMowXd4kIYt2K-57">
          <mxGeometry x="-0.8194" relative="1" as="geometry">
            <mxPoint as="offset" />
          </mxGeometry>
        </mxCell>
        <mxCell id="tc7dyHWRMowXd4kIYt2K-11" value="用户是否&#xa;确认区域" style="rhombus;strokeWidth=2;whiteSpace=wrap;" vertex="1" parent="1">
          <mxGeometry x="710" y="490" width="110" height="110" as="geometry" />
        </mxCell>
        <mxCell id="tc7dyHWRMowXd4kIYt2K-39" style="edgeStyle=orthogonalEdgeStyle;rounded=0;orthogonalLoop=1;jettySize=auto;html=1;exitX=0.5;exitY=1;exitDx=0;exitDy=0;entryX=0.5;entryY=0;entryDx=0;entryDy=0;" edge="1" parent="1" source="tc7dyHWRMowXd4kIYt2K-12" target="tc7dyHWRMowXd4kIYt2K-13">
          <mxGeometry relative="1" as="geometry" />
        </mxCell>
        <mxCell id="tc7dyHWRMowXd4kIYt2K-12" value="转换坐标并传递给主程序" style="whiteSpace=wrap;strokeWidth=2;" vertex="1" parent="1">
          <mxGeometry x="860" y="10" width="236" height="54" as="geometry" />
        </mxCell>
        <mxCell id="tc7dyHWRMowXd4kIYt2K-40" style="edgeStyle=orthogonalEdgeStyle;rounded=0;orthogonalLoop=1;jettySize=auto;html=1;exitX=0.5;exitY=1;exitDx=0;exitDy=0;entryX=0.5;entryY=0;entryDx=0;entryDy=0;" edge="1" parent="1" source="tc7dyHWRMowXd4kIYt2K-13" target="tc7dyHWRMowXd4kIYt2K-15">
          <mxGeometry relative="1" as="geometry" />
        </mxCell>
        <mxCell id="tc7dyHWRMowXd4kIYt2K-13" value="更新检测区域、区域显示与模型配置" style="whiteSpace=wrap;strokeWidth=2;" vertex="1" parent="1">
          <mxGeometry x="860" y="137" width="236" height="54" as="geometry" />
        </mxCell>
        <mxCell id="tc7dyHWRMowXd4kIYt2K-46" style="edgeStyle=orthogonalEdgeStyle;rounded=0;orthogonalLoop=1;jettySize=auto;html=1;exitX=0;exitY=0.5;exitDx=0;exitDy=0;entryX=0;entryY=0.5;entryDx=0;entryDy=0;" edge="1" parent="1" source="tc7dyHWRMowXd4kIYt2K-14" target="tc7dyHWRMowXd4kIYt2K-6">
          <mxGeometry relative="1" as="geometry">
            <Array as="points">
              <mxPoint x="550" y="545" />
              <mxPoint x="550" y="37" />
            </Array>
          </mxGeometry>
        </mxCell>
        <mxCell id="tc7dyHWRMowXd4kIYt2K-50" value="是" style="edgeLabel;html=1;align=center;verticalAlign=middle;resizable=0;points=[];" vertex="1" connectable="0" parent="tc7dyHWRMowXd4kIYt2K-46">
          <mxGeometry x="-0.9632" relative="1" as="geometry">
            <mxPoint as="offset" />
          </mxGeometry>
        </mxCell>
        <mxCell id="tc7dyHWRMowXd4kIYt2K-14" value="用户是否&#xa;选择清空重绘" style="rhombus;strokeWidth=2;whiteSpace=wrap;" vertex="1" parent="1">
          <mxGeometry x="570" y="490" width="110" height="110" as="geometry" />
        </mxCell>
        <mxCell id="tc7dyHWRMowXd4kIYt2K-15" value="清空顶点列表" style="whiteSpace=wrap;strokeWidth=2;" vertex="1" parent="1">
          <mxGeometry x="900" y="228" width="156" height="54" as="geometry" />
        </mxCell>
        <mxCell id="tc7dyHWRMowXd4kIYt2K-17" value="结束" style="whiteSpace=wrap;strokeWidth=2;" vertex="1" parent="1">
          <mxGeometry x="463" y="624" width="92" height="54" as="geometry" />
        </mxCell>
        <mxCell id="tc7dyHWRMowXd4kIYt2K-18" value="" style="startArrow=none;endArrow=block;exitX=0.5;exitY=1;entryX=0.5;entryY=0;rounded=0;edgeStyle=orthogonalEdgeStyle;" edge="1" parent="1" source="tc7dyHWRMowXd4kIYt2K-1" target="tc7dyHWRMowXd4kIYt2K-2">
          <mxGeometry relative="1" as="geometry" />
        </mxCell>
        <mxCell id="tc7dyHWRMowXd4kIYt2K-19" value="" style="startArrow=none;endArrow=block;exitX=0.5;exitY=1;entryX=0.5;entryY=0;rounded=0;edgeStyle=orthogonalEdgeStyle;" edge="1" parent="1" source="tc7dyHWRMowXd4kIYt2K-2" target="tc7dyHWRMowXd4kIYt2K-3">
          <mxGeometry relative="1" as="geometry" />
        </mxCell>
        <mxCell id="tc7dyHWRMowXd4kIYt2K-20" value="" style="startArrow=none;endArrow=block;exitX=0.5;exitY=1;entryX=0.5;entryY=0;rounded=0;edgeStyle=orthogonalEdgeStyle;" edge="1" parent="1" source="tc7dyHWRMowXd4kIYt2K-3" target="tc7dyHWRMowXd4kIYt2K-4">
          <mxGeometry relative="1" as="geometry" />
        </mxCell>
        <mxCell id="tc7dyHWRMowXd4kIYt2K-21" value="" style="startArrow=none;endArrow=block;exitX=0.5;exitY=1;entryX=0.5;entryY=0;rounded=0;edgeStyle=orthogonalEdgeStyle;" edge="1" parent="1" source="tc7dyHWRMowXd4kIYt2K-4" target="tc7dyHWRMowXd4kIYt2K-5">
          <mxGeometry relative="1" as="geometry" />
        </mxCell>
        <mxCell id="tc7dyHWRMowXd4kIYt2K-23" value="" style="startArrow=none;endArrow=block;exitX=0.5;exitY=1;entryX=0.5;entryY=0;rounded=0;edgeStyle=orthogonalEdgeStyle;" edge="1" parent="1" source="tc7dyHWRMowXd4kIYt2K-6" target="tc7dyHWRMowXd4kIYt2K-7">
          <mxGeometry relative="1" as="geometry" />
        </mxCell>
        <mxCell id="tc7dyHWRMowXd4kIYt2K-24" value="是" style="startArrow=none;endArrow=block;exitX=0.5;exitY=1;entryX=0.5;entryY=0;rounded=0;edgeStyle=orthogonalEdgeStyle;" edge="1" parent="1" source="tc7dyHWRMowXd4kIYt2K-7" target="tc7dyHWRMowXd4kIYt2K-8">
          <mxGeometry relative="1" as="geometry" />
        </mxCell>
        <mxCell id="tc7dyHWRMowXd4kIYt2K-25" value="" style="startArrow=none;endArrow=block;exitX=0.5;exitY=1;entryX=0.5;entryY=0;rounded=0;edgeStyle=orthogonalEdgeStyle;" edge="1" parent="1" source="tc7dyHWRMowXd4kIYt2K-8" target="tc7dyHWRMowXd4kIYt2K-9">
          <mxGeometry relative="1" as="geometry" />
        </mxCell>
        <mxCell id="tc7dyHWRMowXd4kIYt2K-26" value="" style="startArrow=none;endArrow=block;exitX=0.5;exitY=1;entryX=0.5;entryY=0;rounded=0;edgeStyle=orthogonalEdgeStyle;" edge="1" parent="1" source="tc7dyHWRMowXd4kIYt2K-9" target="tc7dyHWRMowXd4kIYt2K-10">
          <mxGeometry relative="1" as="geometry" />
        </mxCell>
      </root>
    </mxGraphModel>
  </diagram>
</mxfile>
